<svg width="26" height="26" viewBox="0 0 26 26" fill="none" xmlns="http://www.w3.org/2000/svg">
<path d="M8.0732 1.52588C5.82789 2.48851 3.91389 4.08843 2.5679 6.12774C1.22191 8.16705 0.502971 10.5563 0.5 13.0001C0.5 16.3153 1.81648 19.4947 4.15982 21.8389C6.50316 24.1831 9.68141 25.5001 12.9954 25.5001C15.4142 25.4982 17.7806 24.7941 19.8072 23.4731C21.8338 22.1521 23.4336 20.2711 24.4124 18.0584C22.8581 18.7306 21.1835 19.0798 19.4902 19.0848C17.8493 19.0848 16.2244 18.7614 14.7084 18.1332C13.1924 17.5051 11.8149 16.5843 10.6546 15.4236C9.49431 14.2629 8.57391 12.8849 7.94595 11.3683C7.318 9.85171 6.9948 8.22623 6.9948 6.5847C6.99775 4.84165 7.36508 3.11849 8.0732 1.52588Z" fill="#e5e8eb"/>
<path d="M25.5 1.54166C25.5 1.81793 25.3903 2.08288 25.1951 2.27823C24.9998 2.47358 24.7349 2.58334 24.4588 2.58334C24.1826 2.58334 23.9177 2.47358 23.7225 2.27823C23.5272 2.08288 23.4175 1.81793 23.4175 1.54166C23.4175 1.2654 23.5272 1.00044 23.7225 0.805094C23.9177 0.609744 24.1826 0.5 24.4588 0.5C24.7349 0.5 24.9998 0.609744 25.1951 0.805094C25.3903 1.00044 25.5 1.2654 25.5 1.54166Z" fill="#e5e8eb"/>
<path d="M19.2244 1.54166C19.2244 1.81793 19.1147 2.08288 18.9194 2.27823C18.7241 2.47358 18.4593 2.58334 18.1831 2.58334C17.907 2.58334 17.6421 2.47358 17.4468 2.27823C17.2516 2.08288 17.1418 1.81793 17.1418 1.54166C17.1418 1.2654 17.2516 1.00044 17.4468 0.805094C17.6421 0.609744 17.907 0.5 18.1831 0.5C18.4593 0.5 18.7241 0.609744 18.9194 0.805094C19.1147 1.00044 19.2244 1.2654 19.2244 1.54166Z" fill="#e5e8eb"/>
<path d="M15.0406 5.72697C15.0406 6.00324 14.9309 6.2682 14.7356 6.46355C14.5403 6.6589 14.2755 6.76865 13.9993 6.76865C13.7231 6.76865 13.4583 6.65889 13.263 6.46354C13.0677 6.26819 12.958 6.00324 12.958 5.72697C12.958 5.59018 12.9849 5.45473 13.0373 5.32834C13.0896 5.20196 13.1663 5.08713 13.263 4.9904C13.3597 4.89368 13.4745 4.81694 13.6008 4.76459C13.7271 4.71224 13.8625 4.6853 13.9993 4.6853C14.136 4.6853 14.2714 4.71224 14.3978 4.76459C14.5241 4.81694 14.6389 4.89367 14.7356 4.9904C14.8323 5.08713 14.909 5.20196 14.9613 5.32834C15.0136 5.45473 15.0406 5.59018 15.0406 5.72697Z" fill="#e5e8eb"/>
<path d="M21.3626 12.0514C21.3626 12.3277 21.2529 12.5927 21.0576 12.788C20.8623 12.9834 20.5975 13.0931 20.3213 13.0931C20.0451 13.0931 19.7803 12.9834 19.585 12.788C19.3897 12.5927 19.28 12.3277 19.28 12.0514C19.28 11.9146 19.307 11.7792 19.3593 11.6528C19.4116 11.5264 19.4883 11.4116 19.585 11.3149C19.6817 11.2181 19.7965 11.1414 19.9228 11.0891C20.0492 11.0367 20.1846 11.0098 20.3213 11.0098C20.4581 11.0098 20.5935 11.0367 20.7198 11.0891C20.8461 11.1414 20.9609 11.2181 21.0576 11.3149C21.1543 11.4116 21.231 11.5264 21.2833 11.6528C21.3357 11.7792 21.3626 11.9146 21.3626 12.0514Z" fill="#e5e8eb"/>
<path d="M23.4007 7.57927C23.4007 7.71606 23.3737 7.85152 23.3214 7.9779C23.2691 8.10428 23.1924 8.21912 23.0957 8.31585C22.999 8.41258 22.8842 8.4893 22.7579 8.54165C22.6315 8.594 22.4961 8.62094 22.3594 8.62094C22.2227 8.62094 22.0872 8.594 21.9609 8.54165C21.8346 8.4893 21.7198 8.41257 21.6231 8.31584C21.5264 8.21911 21.4497 8.10428 21.3974 7.9779C21.345 7.85152 21.3181 7.71606 21.3181 7.57927C21.3181 7.303 21.4278 7.03805 21.6231 6.8427C21.8184 6.64735 22.0832 6.5376 22.3594 6.5376C22.6356 6.5376 22.9004 6.64734 23.0957 6.84269C23.291 7.03804 23.4007 7.303 23.4007 7.57927Z" fill="#e5e8eb"/>
</svg>
