<svg width="31" height="30" viewBox="0 0 31 30" fill="none" xmlns="http://www.w3.org/2000/svg">
<path d="M20.8176 9.68267C19.4684 8.33347 17.5636 7.46045 15.5001 7.46045C13.4366 7.46045 11.5319 8.29378 10.1827 9.68267C8.83347 11.0319 7.96045 12.9366 7.96045 15.0001C7.96045 17.0636 8.83347 18.9684 10.1827 20.3176C11.5319 21.6668 13.4366 22.5398 15.5001 22.5398C17.5636 22.5398 19.4684 21.7065 20.8176 20.3176C22.1668 18.9684 23.0398 17.0636 23.0398 15.0001C23.0398 12.9366 22.2065 11.0319 20.8176 9.68267Z" fill="#e5e8eb"/>
<path d="M15.5 5.11904C16.0556 5.11904 16.5318 4.64285 16.5318 4.0873V1.03175C16.5318 0.47619 16.0556 0 15.5 0C14.9445 0 14.4683 0.47619 14.4683 1.03175V4.0873C14.4683 4.64285 14.9445 5.11904 15.5 5.11904Z" fill="#e5e8eb"/>
<path d="M23.9523 8.01591L26.1348 5.83337C26.5316 5.43654 26.5316 4.80162 26.1348 4.4048C25.738 4.00797 25.1031 4.00797 24.7062 4.4048L22.5237 6.58734C22.1269 6.98416 22.1269 7.61909 22.5237 8.01591C22.8808 8.41274 23.5158 8.41274 23.9523 8.01591Z" fill="#e5e8eb"/>
<path d="M29.4682 13.9683H26.4126C25.8571 13.9683 25.3809 14.4445 25.3809 15C25.3809 15.5556 25.8571 16.0318 26.4126 16.0318H29.4682C30.0237 16.0318 30.4999 15.5556 30.4999 15C30.4999 14.4445 30.0237 13.9683 29.4682 13.9683Z" fill="#e5e8eb"/>
<path d="M23.9127 21.9841C23.5159 21.5873 22.881 21.5873 22.4841 21.9841C22.0873 22.381 22.0873 23.0159 22.4841 23.4127L24.6667 25.5953C25.0635 25.9921 25.6984 25.9921 26.0953 25.5953C26.4921 25.1984 26.4921 24.5635 26.0953 24.1667L23.9127 21.9841Z" fill="#e5e8eb"/>
<path d="M15.5 24.8809C14.9445 24.8809 14.4683 25.3571 14.4683 25.9126V28.9682C14.4683 29.5237 14.9445 29.9999 15.5 29.9999C16.0556 29.9999 16.5318 29.5237 16.5318 28.9682V25.9126C16.5318 25.3571 16.0556 24.8809 15.5 24.8809Z" fill="#e5e8eb"/>
<path d="M7.04754 21.9841L4.865 24.1667C4.46818 24.5635 4.46818 25.1984 4.865 25.5953C5.26183 25.9921 5.89675 25.9921 6.29357 25.5953L8.47611 23.4127C8.87294 23.0159 8.87294 22.381 8.47611 21.9841C8.11897 21.5873 7.48405 21.5873 7.04754 21.9841Z" fill="#e5e8eb"/>
<path d="M5.61904 15C5.61904 14.4445 5.14285 13.9683 4.5873 13.9683H1.53175C0.97619 13.9683 0.5 14.4445 0.5 15C0.5 15.5556 0.97619 16.0318 1.53175 16.0318H4.5873C5.14285 16.0318 5.61904 15.5556 5.61904 15Z" fill="#e5e8eb"/>
<path d="M7.04754 8.01591C7.44437 8.41274 8.07929 8.41274 8.47611 8.01591C8.87294 7.61909 8.87294 6.98416 8.47611 6.58734L6.29357 4.4048C5.89675 4.00797 5.26183 4.00797 4.865 4.4048C4.46818 4.80162 4.46818 5.43654 4.865 5.83337L7.04754 8.01591Z" fill="#e5e8eb"/>
</svg>
