<svg xmlns="http://www.w3.org/2000/svg" xmlns:xlink="http://www.w3.org/1999/xlink" width="1024" height="1024" viewBox="0 0 1024 1024"><defs><clipPath id="b"><rect width="1024" height="1024"/></clipPath></defs><g id="a" clip-path="url(#b)"><g transform="translate(-113.5 -114.935)"><g transform="translate(136 132)" opacity="0"><rect width="977.849" height="115.884" transform="translate(0.651 0.651)" fill="#00ab00"/><path d="M39.29,0H933a58,58,0,0,1,58,58v0a58,58,0,0,1-58,58H39.29A39.29,39.29,0,0,1,0,76.71V39.29A39.29,39.29,0,0,1,39.29,0Z" transform="translate(977.5 -0.065) rotate(90)" fill="#00ab00"/><rect width="115" height="991" rx="42" transform="translate(0.5 -0.065)" fill="#00ab00"/></g><path d="M104.365-471.574H-68.444v263.59H99.99q59.062,0,88.592-38.827t29.531-92.42q0-53.593-28.437-92.967T104.365-471.574ZM143.74-106.268,281.55,87.323q14.218,17.5,10.937,44.3t-24.062,39.921q-18.593,12.031-42.656,8.2t-37.187-23.515L16.867-101.893H-68.444V121.229q0,24.062-17.5,41.562t-42.656,17.5q-22.968,0-39.374-17.5a58.705,58.705,0,0,1-16.406-41.562V-515.324q0-29.531,16.953-46.484t44.3-16.953H108.74q113.748,0,171.716,70t57.968,169.529q0,90.78-48.671,156.4T143.74-106.268Z" transform="translate(543.684 912.319)" fill="#580a94"/><path d="M29.3,0a29.3,29.3,0,0,1,29.3,29.3V902.98A29.3,29.3,0,0,1,0,902.98V29.3A29.3,29.3,0,0,1,29.3,0Z" transform="translate(999.267 160.645)" fill="#580a94"/><path d="M29.3,0a29.3,29.3,0,0,1,29.3,29.3V902.98A29.3,29.3,0,0,1,0,902.98V29.3A29.3,29.3,0,0,1,29.3,0Z" transform="translate(194.593 160.645)" fill="#580a94"/><path d="M29.3,0H833.971a29.3,29.3,0,1,1,0,58.593H29.3A29.3,29.3,0,0,1,29.3,0Z" transform="translate(194.593 160.645)" fill="#580a94"/><path d="M42.968,0H284.69A29.107,29.107,0,0,1,313.8,29.107V56.829A29.107,29.107,0,0,1,284.69,85.936H42.968A42.968,42.968,0,0,1,42.968,0Z" transform="translate(741.459 1006.986)" fill="#580a94"/></g></g></svg>