<svg xmlns="http://www.w3.org/2000/svg" xmlns:xlink="http://www.w3.org/1999/xlink" width="1024" height="1024" viewBox="0 0 1024 1024"><defs><clipPath id="b"><rect width="1024" height="1024"/></clipPath></defs><g id="a" clip-path="url(#b)"><circle cx="512" cy="512" r="512" fill="#fff" opacity="0.68"/><g transform="translate(8.922 8.905)"><g transform="translate(136.612 131.564)" opacity="0"><rect width="733.448" height="86.92" transform="translate(0 0.912)"/><path d="M29.488,0H700.531a43.53,43.53,0,0,1,43.53,43.53v0a43.53,43.53,0,0,1-43.53,43.53H29.488A29.488,29.488,0,0,1,0,57.572V29.488A29.488,29.488,0,0,1,29.488,0Z" transform="translate(733.13 0) rotate(90)"/><rect width="86.048" height="744.062" rx="42" transform="translate(0.204 0)"/></g><path d="M32.2-498.364H-97.421v197.709H28.916q44.3,0,66.45-29.123t22.15-69.321q0-40.2-21.33-69.731T32.2-498.364Zm29.533,274L165.1-79.156q10.665,13.126,8.2,33.225T155.252-15.988q-13.946,9.024-31.994,6.153T95.365-27.473L-33.432-221.08H-97.421V-53.725q0,18.048-13.126,31.174A43.537,43.537,0,0,1-142.541-9.425q-17.228,0-29.533-13.126A44.032,44.032,0,0,1-184.38-53.725V-531.179q0-22.15,12.716-34.866t33.225-12.716H35.479q85.318,0,128.8,52.5T207.756-399.1q0,68.091-36.506,117.313T61.73-224.361Z" transform="translate(487.995 861.93)"/><path d="M21.974,0A21.974,21.974,0,0,1,43.948,21.974V677.292a21.974,21.974,0,0,1-43.948,0V21.974A21.974,21.974,0,0,1,21.974,0Z" transform="translate(783.628 153.474)"/><path d="M21.974,0A21.974,21.974,0,0,1,43.948,21.974V677.292a21.974,21.974,0,0,1-43.948,0V21.974A21.974,21.974,0,0,1,21.974,0Z" transform="translate(180.072 153.474)"/><path d="M21.974,0H625.53a21.974,21.974,0,0,1,0,43.948H21.974A21.974,21.974,0,0,1,21.974,0Z" transform="translate(180.072 153.474)"/><path d="M32.229,0H213.535a21.832,21.832,0,0,1,21.832,21.832V42.625a21.832,21.832,0,0,1-21.832,21.832H32.229A32.229,32.229,0,0,1,32.229,0Z" transform="translate(590.256 788.282)"/></g></g></svg>